<?xml version="1.0" encoding="utf-8"?>
<!-- Generator: Adobe Illustrator 16.0.0, SVG Export Plug-In . SVG Version: 6.00 Build 0)  -->
<!DOCTYPE svg PUBLIC "-//W3C//DTD SVG 1.1//EN" "http://www.w3.org/Graphics/SVG/1.1/DTD/svg11.dtd">
<svg version="1.1" xmlns="http://www.w3.org/2000/svg" xmlns:xlink="http://www.w3.org/1999/xlink" x="0px" y="0px" viewBox="0 0 155 190" enable-background="new 0 0 155 190" xml:space="preserve">
    <style type="text/css">
        rect{fill:url(#gradient)}
    </style>
    <defs>
        <linearGradient id="gradient" x1="0" x2="0" y1="0" y2="1">
            <stop offset="0" stop-color="rgba(0, 0, 0, 0.25)" />
            <stop offset="100%" stop-color="rgba(0, 0, 0, 0.75)" />
        </linearGradient>
    </defs>
    <path fill-rule="evenodd" clip-rule="evenodd" d="M78.006,186.847c-18.49,0-36.98,0.04-55.47-0.019
    	c-8.773-0.027-15.395-6.533-15.472-15.32c-0.107-12.156-0.238-24.321,0.177-36.466c0.123-3.601,2.063-7.137,3.146-10.71
    	c4.109-13.554,4.623-27.324,3.028-41.342c-0.904-7.937-2.079-15.659-6.057-22.734c-0.439-0.781-0.225-1.959-0.228-2.954
    	c-0.04-11.827-0.171-23.655-0.059-35.48C7.169,11.233,13.618,5.16,24.4,5.16c35.814,0,71.628-0.002,107.443,0.001
    	c10.551,0.001,17.021,6.429,17.067,17.018c0.034,7.996-0.308,16.005,0.057,23.983c0.369,8.058-1.426,15.44-3.857,23.115
    	c-3.989,12.594-4.115,25.838-2.678,38.984c0.877,8.011,1.718,16.058,6.099,23.205c0.614,1.002,0.329,2.603,0.333,3.927
    	c0.035,11.494-0.331,23.003,0.169,34.477c0.419,9.615-8.042,17.47-17.063,17.143c-17.967-0.649-35.974-0.192-53.964-0.192
    	C78.006,186.828,78.006,186.837,78.006,186.847z"/>
</svg>
