<?xml version="1.0" encoding="utf-8"?>
<!-- Generator: Adobe Illustrator 16.0.0, SVG Export Plug-In . SVG Version: 6.00 Build 0)  -->
<!DOCTYPE svg PUBLIC "-//W3C//DTD SVG 1.1//EN" "http://www.w3.org/Graphics/SVG/1.1/DTD/svg11.dtd">
<svg class="svg-logoNoText" version="1.1" xmlns="http://www.w3.org/2000/svg" xmlns:xlink="http://www.w3.org/1999/xlink" x="0px" y="0px" viewBox="0 0 425 330" enable-background="new 0 0 425 330" xml:space="preserve">
	<g>
		<path fill="none" d="M91.591,193.353c0.001,0,0.06,0.061,0.06,0.061v-0.084C91.63,193.337,91.613,193.345,91.591,193.353
			L91.591,193.353z"/>
		<path fill="none" d="M91.651,193.329c2.714-0.977,1.864-2.135,0-4.451V193.329z"/>
		<path fill="none" d="M77.463,106.425L77.463,106.425c3.061-1.597,6.123-3.195,9.185-4.793
			C83.205,102.5,79.618,103.091,77.463,106.425z"/>
		<path fill="none" d="M91.563,193.522c-1.155,1.369-1.68,2.938-1.66,5.381C91.94,197.03,91.309,195.146,91.563,193.522z"/>
		<path fill="none" d="M158.815,58.775c-0.103-0.1-0.205-0.198-0.307-0.298c0,0,0,0,0,0
			C158.575,58.613,158.684,58.706,158.815,58.775c0.554,0.54,1.109,1.08,1.664,1.62C160.955,58.797,159.526,59.155,158.815,58.775z"
			/>
		<path fill="none" d="M143.91,56.853c0.81-0.067,0.458-1.321,0.383-2.085c0,0,0,0,0,0c-0.576,0.395-1.125,0.316-1.654-0.097v0
			C142.752,55.607,142.698,56.954,143.91,56.853z"/>
		<path fill="none" d="M91.563,193.522c0.03-0.035,0.056-0.072,0.087-0.109l-0.06-0.061
			C91.58,193.409,91.573,193.466,91.563,193.522z"/>
		<path fill="none" d="M140.583,314.455c-0.418,1.552-2.208,3.101-0.04,4.786c1.571-0.918,0.968-2.711,1.751-3.861
			C141.305,315.849,140.933,315.171,140.583,314.455z"/>
		<path fill="none" d="M368.441,183.054c1.449-2.996,0.996-5.332-1.211-7.654c-3.584-3.773-8.201-5.574-13.033-6.889
			c-13.479-3.664-27.271-3.262-41.063-3.167c-4.672,0.032-8.27,0.489-9.627,5.899c-0.529,2.102-2.483,3.848-4.09,6.199
			c4.133,1.871,7.615,3.758,11.857,4.508c7.748,1.369,15.236,3.25,21.852,8.551c3.25,2.604,7.453,5.578,11.846,6.316
			C352.219,198.036,365.15,189.847,368.441,183.054z"/>
		<path fill="none" d="M142.651,52.267L142.651,52.267c-0.004,0.801-0.008,1.602-0.012,2.403c0.552,0.032,1.103,0.065,1.654,0.097
			c0.339-0.435,0.679-0.87,1.018-1.305c0.181-0.059,0.338-0.152,0.495-0.246c-0.031-0.534-0.062-1.068-0.093-1.602
			c0.017-0.006,0.035-0.007,0.053-0.014c0.302-0.2,0.513-0.433,0.68-0.682c-0.111,0.753-0.182,1.52-0.476,2.211
			c-0.05,0.036-0.111,0.055-0.164,0.087c0.005,0.083,0.01,0.167,0.015,0.25c0.062-0.108,0.101-0.224,0.148-0.336
			c0.19-0.135,0.362-0.296,0.512-0.487c0.417-0.843,0.479-1.631,0.282-2.379c-0.076,0.229-0.18,0.448-0.318,0.654
			c0.05-0.336,0.121-0.666,0.218-0.986c0.041,0.109,0.071,0.22,0.101,0.331c0.114-0.349,0.177-0.716,0.227-1.087
			c-0.143,0.241-0.248,0.494-0.327,0.757c-0.154-0.413-0.391-0.813-0.693-1.204l0,0c-0.137,0.021-0.283-0.054-0.439-0.236
			c0.056-0.002,0.111-0.014,0.167-0.017c-0.352-0.227-0.709-0.209-1.072,0.085c0.302-0.015,0.604-0.038,0.904-0.068
			c0.061,1.041,0.122,2.082,0.182,3.123c-0.26,0.09-0.523,0.122-0.805,0.153c-0.016,0.039-0.367-0.162-0.374-0.125
			c-0.127-0.09-0.245-0.196-0.359-0.307C144.058,51.859,143.691,52.246,142.651,52.267z"/>
		<path fill="none" d="M86.282,34.559c0.433-0.031,0.864-0.062,1.297-0.094C87.111,34.012,86.68,34.044,86.282,34.559z"/>
		<path fill="none" d="M299.581,155.278c-8.498-9.918-16.526-12.174-27.31-7.474c-8.044,3.507-15.749,7.792-23.604,11.73
			C265.658,160.257,282.236,157.128,299.581,155.278z"/>
		<path fill="none" d="M246.166,171.567c11.697,3.682,23.818,4.512,35.94,5.361c5.534,0.389,12.714-4.65,14.419-10.295
			c-17.415,1.506-34.826,2.439-52.543,3.113C244.491,171.405,245.407,171.329,246.166,171.567z"/>
		<path fill="none" d="M166.511,271.53c-0.951-0.025-1.69,0.422-1.51,1.395c0.061,0.33,1.057,0.646,1.64,0.674
			c0.541,0.025,1.36-0.016,1.321-0.867C167.755,271.872,167.226,271.55,166.511,271.53z"/>
		<path fill="none" d="M133.373,62.173c-11.711,2.956-15.916,14.974-9.318,26.93c1.144-2.71,3.989-3.435,5.498-5.607
			c0.262-0.966,1.077-1.804,0.68-2.924c2.233-2.66,3.637,0.862,5.526,0.763c1.409-7.283,4.105-9.158,15.546-5.332
			c0.156-2.931,2.615-5.733-0.613-8.647C145.667,62.822,140.027,60.494,133.373,62.173z"/>
		<path fill="none" d="M322.621,273.604c-1.771,0.75,0.326,1.865,0.131,2.865c0.557-0.326,1.113-0.654,1.67-0.98
			C324.053,274.603,323.623,273.179,322.621,273.604z"/>
		<path fill="none" d="M139.68,308.558c-0.017,0.014-0.033,0.029-0.038,0.035c0.014-0.005,0.024-0.015,0.039-0.02
			c0.003-0.004,0.004-0.008,0.006-0.012C139.685,308.56,139.682,308.558,139.68,308.558z"/>
		<path fill="none" d="M213.458,120.5c0.683,0.179,1.37,0.359,2.061,0.541c0.732,0.015,1.46-0.173,2.184-0.626L213.458,120.5z"/>
		<path fill="none" d="M418.266,163.772c0.328-0.408,0.658-0.817,0.988-1.225C418.305,162.454,417.846,162.759,418.266,163.772z"/>
		<polygon fill="none" points="139.697,308.54 139.696,308.542 139.698,308.54 		"/>
		<path fill="none" d="M139.687,308.562c0.003,0.002,0.005,0.004,0.008,0.006c0.006-0.004,0.011-0.008,0.017-0.01
			c0.044,0.029,0.084,0.064,0.128,0.096c-0.048-0.029-0.096-0.059-0.145-0.086c-0.004,0-0.008,0.004-0.013,0.006
			c-1.195,2.184-1.181,4.188,0.903,5.881l0,0c0.571,0.309,1.141,0.617,1.711,0.926c1.473-3.227,3.205-6.422,1.393-10.164
			c-2.232,0.211-2.319,2.709-3.977,3.342c-0.005-0.004-0.01-0.008-0.016-0.012c0-0.002,0.001-0.002,0.001-0.004l-0.002,0.002
			c0.001,0,0.001,0.002,0.001,0.002C139.691,308.55,139.689,308.556,139.687,308.562z M141.445,311.021
			c-0.006,0.094-0.009-0.006-0.013,0.111c0.01-0.803-0.32-1.434-0.864-1.941C141.07,309.612,141.46,310.138,141.445,311.021z"/>
		<path fill="none" d="M63.751,226.796c0.076-0.211-0.031-0.41-0.321-0.594c0.017,0.309,0.04,0.615,0.069,0.922
			C63.589,227.124,63.673,227.015,63.751,226.796z"/>
		<polygon fill="none" points="139.693,308.544 139.697,308.54 139.688,308.54 		"/>
		<path fill="none" d="M160.095,273.995c1.158,0.957,2.309,1.938,3.929,2.006c0.175,0.045,0.344,0.098,0.519,0.145
			c-0.314-0.883-0.871-1.752-0.033-2.68c-1.529-0.508-2.285-1.781-3.037-3.059c-0.105-0.078-0.201-0.169-0.302-0.255
			c0.17,0.344,0.26,0.772,0.302,1.255c-2.79,1.541-2.195-0.543-2.165-2.02c0.476-0.076,0.841-0.033,1.136,0.084
			c0.231,0.235,0.472,0.463,0.723,0.677c-0.158-0.314-0.394-0.544-0.723-0.677c-0.367-0.375-0.728-0.756-1.136-1.086
			c-0.582,0.352-1.163,0.699-1.745,1.049c-0.005,1.383,0.189,2.58,0.577,3.6c0.205,0.012,0.41,0.037,0.616,0.082
			C159.251,273.331,159.675,273.669,160.095,273.995z"/>
		<path fill="none" d="M139.646,308.536c-0.358-0.365-0.739-0.393-1.144-0.076c0.381,0.025,0.763,0.051,1.144,0.078
			C139.646,308.536,139.646,308.536,139.646,308.536z"/>
		<path fill="none" d="M139.636,308.597l0.001-0.002c0.001,0,0.001-0.001,0.002-0.001c0.003-0.005,0.023-0.021,0.04-0.036h0
			c0.006-0.006,0.013-0.012,0.014-0.014c-0.002,0.002-0.009,0.008-0.015,0.014c-0.01-0.006-0.019-0.012-0.029-0.018
			c-0.001-0.002-0.002-0.002-0.003-0.002h-0.001C139.643,308.556,139.639,308.577,139.636,308.597z"/>
		<path fill="none" d="M332.572,124.379l0.002,0c-0.641-1.209,0.529-1.246,1.084-1.679c0.063,0,0.107-0.132,0.129-0.396
			c0.021-0.251-0.09-0.478-0.332-0.68c-0.018,0.406-0.035,0.811-0.053,1.215c-0.904-0.223-2.221-0.885-2.607,0.018
			C330.379,123.829,331.527,124.356,332.572,124.379z"/>
		<path fill="none" d="M139.034,305.522c1.008-0.033,0.914-0.947,1.041-1.721c0.333,1.58-1.994,2.643-0.875,4.375
			c0.139,0.121,0.296,0.227,0.45,0.334c0.291-1.727,0.582-3.455,0.873-5.184c2.112,0.318,3.42-1.143,3.473-2.699
			c0.08-2.33-1.751-3.844-4.083-5.584c-0.27,2.914-1.614,5.059-0.428,7.475c0.803-0.318,1.119-0.01,1.038,0.809
			c-0.072-0.057-0.145-0.113-0.217-0.17c-0.07,0.152-0.135,0.307-0.197,0.463c0.024-0.107,0.054-0.211,0.097-0.305
			c0.024-0.066,0.054-0.115,0.08-0.174c-0.267-0.209-0.534-0.416-0.801-0.623c-0.205,1.08-0.384,2.209-1.797,0.914
			C138.144,304.144,137.809,305.565,139.034,305.522z"/>
		<path fill="none" d="M83.585,227.577c-0.311-0.318-0.621-0.635-0.931-0.953C82.389,227.505,82.548,227.97,83.585,227.577z"/>
		<path fill="none" d="M139.646,308.538c0.013,0,0.027,0.002,0.041,0.002c-0.013-0.01-0.025-0.02-0.038-0.029
			c-0.001,0.01-0.003,0.018-0.004,0.025C139.646,308.536,139.646,308.536,139.646,308.538z"/>
		<path fill="none" d="M123.385,310.442c-0.308-0.008-0.616-0.006-0.924,0.004C122.771,310.862,123.079,310.882,123.385,310.442z"/>
		<path fill="none" d="M147.054,49.052c0.07,0.014,0.134,0.045,0.207,0.054c0.098-0.013,0.189-0.036,0.279-0.062
			c0.001-0.182,0-0.363-0.007-0.547C147.339,48.669,147.185,48.856,147.054,49.052z"/>
		<path fill="none" d="M266.387,122.745c0.344-0.402,0.687-0.805,1.029-1.207C267.079,121.946,266.205,121.895,266.387,122.745z"/>
		<path fill="none" d="M260.438,119.662c-0.402,0.317-0.803,0.637-1.204,0.954C260.313,121.155,260.506,120.573,260.438,119.662z"/>
		<path fill="none" d="M226.595,112.536c-0.173,0.137-0.271,0.325-0.346,0.526C226.363,112.887,226.479,112.71,226.595,112.536z"/>
		<path fill="none" d="M226.244,113.07c-0.275,0.419-0.551,0.838-0.824,1.257C226.013,114.117,226.064,113.552,226.244,113.07z"/>
		<path fill="none" d="M317.131,65.969c-0.225-0.127-0.447-0.254-0.67-0.381c-0.016,0.246-0.02,0.492-0.012,0.739
			C316.676,66.208,316.902,66.088,317.131,65.969z"/>
		<path fill="none" d="M66.284,224.419L66.284,224.419c-0.408-0.01-0.814-0.021-1.222-0.031
			C65.46,224.784,65.867,224.794,66.284,224.419z"/>
		<path fill="none" d="M262.361,121.578c0.365-0.337,0.729-0.674,1.093-1.011C263.093,120.907,262.443,120.935,262.361,121.578z"/>
		<path fill="none" d="M147.054,49.052c-0.016-0.003-0.031-0.008-0.046-0.012c-0.006,0.045-0.012,0.09-0.018,0.135
			C147.013,49.135,147.028,49.091,147.054,49.052z"/>
		<path fill="none" d="M301.001,66.892c-0.54-0.018-1.054,0.066-1.494,0.411C300.005,67.165,300.503,67.029,301.001,66.892z"/>
		<path fill="none" d="M226.417,66.436L226.417,66.436c-0.331-0.367-0.664-0.735-0.997-1.102
			C225.397,66.022,226.1,66.055,226.417,66.436z"/>
		<path fill="none" d="M201.7,72.937c0.07-0.237-0.014-0.468-0.253-0.696c0.011,0.352,0.021,0.703,0.031,1.054
			C201.555,73.294,201.628,73.175,201.7,72.937z"/>
		<path fill="none" d="M149.711,34.614c0.547-0.014,1.095-0.027,1.642-0.041C150.789,33.896,150.24,33.885,149.711,34.614z"/>
		<path fill="none" d="M212.208,69.307c0.401,0.312,0.802,0.623,1.205,0.934C213.507,69.289,213.19,68.869,212.208,69.307z"/>
		<path fill="none" d="M54.588,109.746C54.588,109.746,54.588,109.746,54.588,109.746c-0.329-0.399-0.658-0.798-0.987-1.197
			C53.259,109.5,53.634,109.862,54.588,109.746z"/>
		<path fill="none" d="M153.728,32.579c0.32,0.407,0.642,0.813,0.962,1.22C155.132,32.79,154.691,32.478,153.728,32.579z"/>
		<path fill="none" d="M220.299,68.242c0.249-0.897,0.033-1.339-0.96-1.023c-0.011,0.003-0.021,0.006-0.031,0.009
			C219.638,67.566,219.969,67.904,220.299,68.242z"/>
		<path fill="none" d="M401.305,152.675c0.504-0.262,1.01-0.524,1.514-0.787C402.24,152.008,401.535,151.887,401.305,152.675z"/>
		<path fill="none" d="M156.394,52.561c-0.123,0.089-0.245,0.175-0.368,0.263C156.158,52.783,156.282,52.703,156.394,52.561
			C156.394,52.561,156.394,52.561,156.394,52.561z"/>
		<path d="M159.011,50.364l-0.422-0.017c-0.357,0.378-0.714,0.756-1.07,1.135c-0.375,0.359-0.749,0.719-1.124,1.078
			c0.001,0,0.001,0,0.001,0c-0.12,0.004-0.236,0.023-0.353,0.041c-0.058,0.084-0.11,0.171-0.177,0.248
			c-0.132,0.004-0.269-0.024-0.416-0.102c0.193-0.072,0.392-0.115,0.592-0.146c0.047-0.07,0.103-0.133,0.144-0.208
			c0.368-0.415,0.953-0.513,1.332-0.911c-0.69,0.421-1.38,0.843-2.068,1.265c0,0-0.001,0-0.001,0s0.033,0.445,0.034,0.46
			c0.141-0.107,0.268-0.227,0.382-0.357l0,0c0.055-0.001,0.108-0.009,0.16-0.025c0.123-0.088,0.245-0.174,0.368-0.263c0,0,0,0,0,0
			c-0.112,0.142-0.236,0.222-0.368,0.263c-0.181,0.129-0.362,0.259-0.542,0.386l-0.001-0.003c0.008,0.426,0.016,0.852,0.024,1.278
			c1.603,0.372,3.483-0.925,4.861,0.806l0.12-0.237c-0.023-1.199-0.047-2.398-0.07-3.597c-0.328-0.368-0.656-0.736-0.984-1.104
			L159.011,50.364z"/>
		<path fill="none" stroke="#000000" stroke-width="0" stroke-linecap="round" stroke-linejoin="round" d="M39.049,96.774
			c0.241-0.075,0.482-0.147,0.713-0.185"/>
		<path d="M68.706,105.707c-3.685,0.664-7.37,1.33-11.054,1.994c0.667,0.289,1.334,0.577,2.001,0.865
			C62.88,108.464,66.032,108.082,68.706,105.707z"/>
		<path d="M146.335,48.41c0.252,0.018,0.504,0.036,0.755,0.054c0.031-0.193,0.068-0.384,0.118-0.57
			c0.391-1.219,1.441-1.748,2.429-2.341c-0.366-1.355-0.732-2.71-1.099-4.065c-0.975,1.091-1.95,2.183-2.925,3.274
			C146.642,45.823,146.465,47.121,146.335,48.41z"/>
		<path d="M129.52,8.534c1.476-1.653,1.177-3.036-0.14-5.109C128.326,5.518,128.165,6.927,129.52,8.534z"/>
		<path d="M139.646,308.536c0.001-0.008,0.003-0.016,0.004-0.025c-0.154-0.107-0.311-0.213-0.45-0.334
			c-1.119-1.732,1.208-2.795,0.875-4.375c-0.127,0.773-0.033,1.688-1.041,1.721c-1.225,0.043-0.89-1.379-1.346-2.09
			c0.546,1.631-2.154,3.787,0.814,5.027C138.907,308.144,139.288,308.171,139.646,308.536z"/>
		<path d="M140.206,303.315c-0.043,0.094-0.073,0.197-0.097,0.305c0.062-0.156,0.127-0.311,0.197-0.463
			c0.072,0.057,0.145,0.113,0.217,0.17c0.081-0.818-0.235-1.127-1.038-0.809c0.267,0.207,0.534,0.414,0.801,0.623
			C140.26,303.2,140.23,303.249,140.206,303.315z"/>
		<path d="M359.732,123.493c-2.258-1.276-3.682-0.779-5.359,0.02C356.041,124.809,357.5,124.722,359.732,123.493z"/>
		<path d="M89.637,93.215c0.277,0.761,0.553,1.522,0.829,2.283C90.169,94.744,90.161,93.886,89.637,93.215z"/>
		<path d="M148.564,41.417c-0.014,0.007-0.024,0.015-0.039,0.021l0.001,0.001c0.004,0.017,0.009,0.033,0.013,0.049
			c0.005-0.006,0.011-0.012,0.016-0.018l-0.014-0.015c0.007,0.007,0.014,0.015,0.014,0.015
			C148.558,41.453,148.561,41.435,148.564,41.417z"/>
		<path d="M151.354,34.573c-0.547,0.014-1.095,0.027-1.642,0.041c-0.383,2.268-0.765,4.535-1.147,6.803
			C151.564,39.988,149.899,36.638,151.354,34.573z"/>
		<path d="M64.693,60.484c-1.396-1.415-3.072-2.379-6.072-2.664C60.82,59.846,62.507,60.603,64.693,60.484z"/>
		<path d="M2.527,99.078c2.312,0.653,4.205,0.641,5.987-0.525c-0.301-0.23-0.391-0.438-0.288-0.624
			C6.591,98.896,4.059,96.475,2.527,99.078z"/>
		<path d="M47.548,200.53c-1.849,1.141-3.699,2.281-5.548,3.424c2.73,0.146,4.852-0.84,6.767-2.318
			C47.558,202.151,47.438,201.468,47.548,200.53z"/>
		<path d="M160.488,55.054c2.002-1.329,2.264-3.63,2.963-5.823c-1.011,0.742-2.022,1.484-3.033,2.226
			C161.48,52.636,161.026,53.844,160.488,55.054z"/>
		<path d="M407.383,153.094c-1.41-1.323-2.648-1.586-4.002-1.497c-0.148,0.17-0.346,0.246-0.559,0.29
			c0.186-0.098,0.373-0.194,0.559-0.291c-1.66-0.298-3.32-0.596-4.979-0.895c-0.092,1.827-1.176,1.216-2.15,0.878
			c1.5,1.212,3.35,0.814,5.051,1.096l0,0C403.18,153.723,405.07,153.863,407.383,153.094z M402.818,151.889
			c-0.504,0.263-1.01,0.524-1.514,0.787C401.535,151.887,402.24,152.008,402.818,151.889z"/>
		<path d="M199.548,132.328c-1.528-0.411-2.838-1.39-4.367-1.798l0.573,0.974C196.95,132.094,198.042,133.165,199.548,132.328z"/>
		<path d="M195.755,131.504c-0.719-0.273-1.308-0.622-1.44-1.24c-1.143-0.682-2.401-0.274-3.615-0.269
			c-0.015,0.001-0.029-0.001-0.044,0c0.006,0.032,0.019,0.062,0.024,0.093C192.651,129.558,193.682,132.398,195.755,131.504z"/>
		<path d="M40.898,219.677c2.162-1.373,3.487-2.215,4.813-3.057c-1.137,0.381-1.377-0.168-1.193-1.152
			C43.161,216.272,41.622,216.919,40.898,219.677z"/>
		<path d="M77.579,190.552c1.322-0.721,3.358-0.436,3.772-2.65c-1.917-0.119-3.729-0.338-4.972,1.436
			C77.411,189.116,77.798,189.534,77.579,190.552z"/>
		<path d="M144.907,51.768c0.282-0.031,0.545-0.063,0.805-0.153c-0.06-1.041-0.121-2.082-0.182-3.123
			c-0.3,0.03-0.602,0.053-0.904,0.068c-0.078,0.32-0.222,0.607-0.431,0.863l-1.981,0.219c0.573,0.211,0.991,0.602,1.366,1.032
			c0.171-0.434,0.341-0.87,0.614-1.25c-0.066,0.605,0.106,1.34-0.021,1.912c0.114,0.111,0.232,0.217,0.359,0.307
			C144.54,51.606,144.891,51.807,144.907,51.768z"/>
		<path d="M59.777,230.511c1.241-1.129,2.482-2.258,3.722-3.387c-0.029-0.307-0.052-0.613-0.069-0.922
			C61.641,227.026,59.836,227.835,59.777,230.511z"/>
		<path d="M122.46,310.446c-1.429,1.752-2.144,3.736-1.969,6.012c0.306-0.01,0.609-0.039,0.913-0.088
			c-0.268,0.4-0.574,0.412-0.913,0.088c-0.528,0.701-1.519,1.707-0.194,2.113c0.78,0.238,1.159-1.211,1.107-2.201h0
			c0.66-1.977,1.32-3.951,1.98-5.928C123.079,310.882,122.771,310.862,122.46,310.446z"/>
		<path d="M49.198,53.729c0.413,0.435,0.999,0.769,1.571,0.972c0.466,0.165,0.907-0.073,0.892-0.963
			c-0.602-0.255-1.281-0.654-2.012-0.817C49.052,52.789,48.785,53.294,49.198,53.729z"/>
		<path d="M203.521,64.055c-1.368-0.417-2.93-0.916-4.849-0.021C200.448,64.964,201.898,64.486,203.521,64.055z"/>
		<path d="M311.195,126.238c0.736,1.612,1.85,1.488,3.27,1.292C313.551,126.274,312.691,125.675,311.195,126.238z"/>
		<path d="M48.924,130.595c1.962-0.884,3.567-0.72,4.682-2.05c-1.089,0.556-1.137-0.071-1.015-0.892
			C51.406,128.238,49.566,127.904,48.924,130.595z"/>
		<path d="M256.173,118.765c-2.047-1.485-3.377-2.11-5.836-2.068C252.16,118.475,253.544,119.009,256.173,118.765z"/>
		<path d="M109.707,52.505c-1.107-0.212-1.908-1.399-3.204-1.005C107.447,52.229,108.287,53.292,109.707,52.505z"/>
		<path d="M151.354,34.573c-0.047-1.264,0.988-2.546-0.117-4.591c-0.662,2.011-1.094,3.322-1.526,4.632h0.001
			C150.24,33.885,150.789,33.896,151.354,34.573z"/>

			<line fill="none" stroke="#000000" stroke-width="0" stroke-linecap="round" stroke-linejoin="round" x1="54.588" y1="109.746" x2="54.589" y2="109.746"/>
		<path d="M53.601,108.548c0.329,0.399,0.658,0.798,0.988,1.197c1.708-0.308,3.555-0.018,5.064-1.18
			c-0.952,0.369-2.014,0.998-2.002-0.865L53.601,108.548z"/>
		<path d="M269.722,122.947c0.523-1.243-1.32-1.19-2.306-1.409c-0.343,0.402-0.686,0.805-1.029,1.207
			C267.515,123.31,269.219,124.144,269.722,122.947z"/>
		<path d="M76.902,158.638c0.875,2.041-0.024,4.205,1.571,5.897c-0.633-1.081-0.661-2.15,0.067-3.202
			C78.397,160.366,79.112,159.012,76.902,158.638z"/>
		<path d="M76.495,104.236c-1.567,0.625-3.806-0.491-5.015,2.132c1.876-0.378,3.421-0.69,4.966-1.001
			C75.675,104.956,75.691,104.579,76.495,104.236z"/>
		<path d="M73.807,166.261c-1.188-0.896-2.274-2.072-4.201-1.773c0.702,1.625,1.736,2.354,2.99,2.838
			C72.474,166.372,72.711,165.829,73.807,166.261z"/>
		<path d="M266.387,122.745c-0.182-0.85,0.692-0.799,1.029-1.207c-1.319-0.325-2.639-0.649-3.958-0.974v0
			c-1.007-0.301-2.013-0.602-3.02-0.903l0,0c-1.091-0.099-2.563-1.483-3.13-0.317c-0.644,1.328,1.075,1.079,1.925,1.272
			c0.401-0.317,0.802-0.637,1.204-0.954c0.068,0.911-0.124,1.493-1.204,0.954c0.877,0.858,1.991,0.941,3.127,0.963l0,0
			C263.516,122.614,264.993,122.533,266.387,122.745z M263.454,120.567c-0.363,0.337-0.728,0.674-1.093,1.011
			C262.443,120.935,263.093,120.907,263.454,120.567z"/>
		<path d="M158.588,50.346c0.285-0.384,0.567-0.4,0.846,0.007c1.155-1.047,1.583-2.453,1.922-3.902
			c-0.165,0.035-0.33,0.07-0.495,0.106C159.177,47.265,158.636,48.658,158.588,50.346z"/>
		<path d="M187.513,129.512c0.919,0.943,1.89,1.597,3.166,0.577c-0.124-0.023-0.211-0.056-0.28-0.093
			C189.418,129.96,188.518,129.398,187.513,129.512z"/>
		<path d="M53.601,108.548c-0.771,0.083-1.983,0.315-1.692,1.068c0.566,1.46,1.742,0.491,2.679,0.129
			C53.634,109.862,53.259,109.5,53.601,108.548z"/>
		<path d="M145.698,48.475c0.087-0.005,0.172-0.017,0.258-0.026c-0.82-1.147,0.556-2.549-0.342-3.687
			c-0.329,1.266-0.658,2.532-0.988,3.798C144.989,48.266,145.346,48.248,145.698,48.475z"/>
		<path d="M162.459,42.584c-1.057,1.66-1.921,2.534-1.599,3.973c0.159-0.064,0.325-0.1,0.496-0.106
			C162.74,45.785,163.269,44.838,162.459,42.584z"/>
		<path d="M419.254,162.547c-0.506-1.016-0.285-2.553-2.451-2.911c0.549,1.556,1.006,2.846,1.463,4.136
			C417.846,162.759,418.305,162.454,419.254,162.547z"/>
		<path d="M212.208,69.306c-1.346,0.1-2.746,0.017-3.806,1.103c1.108-0.638,1.074,0.073,0.992,0.84
			c1.34-0.336,2.679-0.672,4.019-1.009C213.011,69.929,212.61,69.618,212.208,69.306c0.982-0.438,1.299-0.018,1.205,0.934
			l3.016-0.889c-0.356-0.309-0.988-0.315-1.049-0.95C214.249,68.442,213.087,68.377,212.208,69.306L212.208,69.306z"/>
		<path d="M77.736,69.362c1.677,0.824,3.257,0.003,4.812,0.019c-0.398-0.298-1.014-0.319-1.174-0.921
			C80.187,68.619,78.802,67.903,77.736,69.362z"/>
		<path d="M220.299,68.242c-0.33-0.338-0.661-0.676-0.991-1.014c0.01-0.003,0.021-0.006,0.031-0.009
			c-0.011,0.004-0.02,0.004-0.031,0.008c-1.361,0.216-2.808,0.149-3.928,1.174l1.049,0.95
			C217.719,68.981,219.009,68.612,220.299,68.242z"/>
		<path d="M221.042,56.92c-0.294-0.079-0.598-0.247-0.881-0.216c-0.511,0.055-0.921,0.354-0.66,0.928
			c0.081,0.177,0.535,0.183,0.979,0.316C220.661,57.616,220.852,57.268,221.042,56.92z"/>
		<path d="M39.164,133.745c0.135-0.027,0.287-0.074,0.482-0.168l0,0c0.713-0.152,2.185,0.158,1.845-0.843
			c-0.585-1.722-1.896-0.076-2.897-0.099c0.35,0.314,0.701,0.627,1.052,0.941L39.164,133.745z"/>
		<path d="M36.625,134.628c0.846-0.295,1.692-0.589,2.538-0.884c-0.637,0.13-0.675-0.409-0.57-1.109
			c-0.996,0.31-1.992,0.621-2.988,0.931C35.946,133.92,36.286,134.274,36.625,134.628z"/>
		<path d="M33.981,134.809c0.74,1.334,1.771,0.35,2.645-0.18c-1.05,0.328-1.274-0.138-1.021-1.062
			C34.808,133.698,33.686,134.275,33.981,134.809z"/>
		<path d="M209.978,62.47c0.379-0.142,0.7-0.438,1.466-0.949c-0.935,0-1.37-0.065-1.774,0.018c-0.42,0.086-0.944,0.288-0.558,0.867
			C209.215,62.561,209.721,62.567,209.978,62.47z"/>
		<path d="M88.452,96.258c-0.291-0.071-0.749-0.338-1.05-0.216c-0.373,0.149-0.615,0.622-0.914,0.956
			c0.421,0.138,0.841,0.387,1.261,0.387C88.236,97.385,88.638,97.098,88.452,96.258z"/>
		<path d="M37.654,220.19c-0.554,0.09-1.318,0.295-1.128,1.127c0.065,0.283,0.565,0.467,0.834,0.67
			c0.599-0.473,1.516-0.387,1.334-1.238C38.638,220.485,37.979,220.138,37.654,220.19z"/>
		<path d="M155.918,26.738c-0.394,0.66-0.789,1.32-1.183,1.98c0.898-0.316,1.318-0.094,1.035,0.919
			C156.407,28.701,157.018,27.763,155.918,26.738z"/>
		<path d="M82.655,226.624c-1.027,0.008-2.437,0.549-1.965,1.375c0.682,1.195,1.977,0.289,2.896-0.422
			C82.548,227.97,82.389,227.505,82.655,226.624z"/>
		<path d="M226.418,66.436L226.418,66.436c-0.318-0.381-1.021-0.413-0.998-1.102C225.753,65.7,226.086,66.068,226.418,66.436
			c0.737-0.225,2.104-0.292,1.602-1.282c-0.557-1.098-1.729-0.225-2.6,0.18c0,0,0,0,0,0c-1.019,0.344-2.036,0.688-3.055,1.031
			c0.356,0.346,0.712,0.691,1.068,1.037C224.429,67.079,225.423,66.757,226.418,66.436z"/>
		<path d="M220.299,68.242c1.045-0.28,2.09-0.561,3.135-0.841c0,0,0,0-0.001,0c-0.349-0.353-1.018-0.376-1.067-1.037
			c-1.01,0.285-2.018,0.57-3.026,0.855C220.332,66.903,220.548,67.345,220.299,68.242z"/>
		<path d="M215.737,139.703c0.102,0.065,0.434-0.231,0.658-0.362c-0.266-0.34-0.532-0.68-0.79-1.01
			c-0.343,0.212-0.57,0.353-0.799,0.494C215.11,139.128,215.385,139.478,215.737,139.703z"/>
		<path d="M141.445,311.021c0.015-0.883-0.375-1.408-0.877-1.83c0.544,0.508,0.874,1.139,0.864,1.941
			C141.436,311.015,141.439,311.114,141.445,311.021z"/>
		<path d="M139.839,308.653c-0.044-0.031-0.084-0.066-0.128-0.096c-0.006,0.002-0.011,0.006-0.017,0.01
			c-0.003-0.002-0.005-0.004-0.008-0.006c-0.002,0.004-0.003,0.008-0.006,0.012c0.005-0.002,0.009-0.006,0.013-0.006
			C139.743,308.595,139.791,308.624,139.839,308.653z"/>
		<polygon points="139.646,308.538 139.646,308.538 139.646,308.536 		"/>

			<line fill="none" stroke="#000000" stroke-width="0" stroke-linecap="round" stroke-linejoin="round" x1="39.764" y1="96.588" x2="39.762" y2="96.589"/>
		<path d="M419.254,162.547c-0.33,0.408-0.66,0.817-0.988,1.225c2.182,13.18-2.023,23.615-13.471,30.773
			c-3.793,2.371-7.68,4.742-11.807,6.408c-13.713,5.541-27.641,5.707-41.635,0.885c3.945-1.018,7.934-1.611,11.893-2.357
			c7.693-1.447,16.205-11.422,17.219-20.07c0.867-7.402-2.824-12.504-12.107-16.656c-1.207-0.54-2.488-0.919-3.742-1.354
			c-7.615-2.642-15.547-3.571-23.518-3.839c-10.477-0.351-20.969-0.286-31.455-0.43c-1.889-0.026-3.468,0.329-4.468-2.503
			c-4.31-12.207-13.602-16.992-26.314-14.561c-8.671,1.658-16.343,5.345-23.663,10.092c-8.511,5.52-17.899,8.959-27.998,9.598
			c-16.887,1.069-33.086-1.864-48.219-9.799c-9.208-4.829-9.326-2.292-6.432-13.958c1.585-6.388,5.446-7.823,10.428-3.921
			c0.242-3.102,1.876-3.743,4.537-2.569c0.97-2.506,2.007,0.122,3.008-0.04c1.294-0.283,2.573-0.825,3.915-0.21
			c2.031,0.476,4.033,1.001,5.112,3.066c3.98,0.615,6.98,4.24,11.989,3.816c-4.836-3.075-9.232-5.711-13.422-8.642
			c-1.124-0.787-3.284-2.186-1.852-3.87c1.543-1.814,5.038-0.59,5.27,0.427c1.334,5.869,5.184,2.312,7.98,2.549
			c0.699,1.43,1.761,2.22,3.6,2.03c-0.797-1.597-1.971-2.213-3.55-2.171l-0.012,0.032c0.004-0.012,0.012-0.033,0.012-0.033
			c1.259-2.014-0.187-5.793,3.893-5.967h0.001c0.69,0.334,1.378,0.526,2.062,0.541c-0.69-0.181-1.378-0.361-2.061-0.541l4.244-0.086
			c-0.724,0.454-1.451,0.642-2.184,0.626c1.479,0.388,2.991,0.785,4.619,1.211c-0.571-1.442-1.427-1.758-2.435-1.838l0,0
			c-0.209-1.104-1.903-1.366-1.524-3.098c4.028,1.973,5.284-4.297,9.241-2.988c0.273-0.419,0.549-0.838,0.824-1.257
			c-0.18,0.481-0.231,1.046-0.824,1.257c1.228,0.127,2.204,1.356,3.593,0.853c-0.068-1.59-2.051-1.372-2.418-2.645
			c-0.115,0.175-0.231,0.352-0.346,0.526c0.074-0.202,0.173-0.389,0.346-0.526c7.264,0.719,14.769-0.011,21.36,4.25
			c0.723-2.702-2.704-2.386-2.1-4.553c1.656-0.202,2.951-0.676,4.034-2.273c2.033-3,4.498-2.271,6.401,0.274
			c0.553,0.739,0.567,1.902,1.751,2.1c9.156,1.533,16.031,10.227,26.511,8.019c5.214-1.098,10.726,0.756,15.773,1.646
			c4.218,0.742,8.273,0.617,12.33,1.151c6.021,0.793,11.881,3.192,17.664,5.298c11.008,4.008,21.953,8.19,32.85,12.49
			c10.805,4.264,21.426,9.047,33.082,10.642l2.148-0.878c-5.578-1.557-11.201-2.966-16.725-4.699
			c-17.162-5.388-32.855-14.137-49.102-21.623c0.318-0.321,0.639-0.642,0.959-0.962h16.73c0-0.338,0-0.676-0.002-1.014
			c-5.602-0.26-11.205-0.52-16.809-0.78c0,0,0,0,0,0c-5.117-1.422-10.521-2.218-15.301-4.387
			c-13.32-6.045-26.796-11.705-40.433-16.959c-15.427-5.944-30.431-13.4-47.485-13.962c-2.812-0.092-5.591-1.162-8.837-1.88
			c3.681-2.649,7.181-3.845,11.107-4.183c3.716-0.32,7.277,0.01,10.855,1.005c8.772,2.437,17.066-1.135,25.448-2.572
			c2.957-0.506,7.414-2.435,7.993-5.755c0.563-3.231,2.166-3.02,4.141-3.541c6.09-1.608,12.303-2.044,18.563-2.087c0,0,0,0,0.001,0
			c5.704,0.677,11.294-0.647,16.94-0.975c1.891,0.134,3.805,0.993,6.781-0.74h-6.768c0.223,0.127,0.445,0.254,0.67,0.381
			c-0.229,0.119-0.455,0.239-0.682,0.358c-0.008-0.247-0.004-0.494,0.012-0.739c-3.672,0.027-7.344,0.054-11.017,0.081
			c-0.975,2.249-2.836,1.279-4.443,1.223c-0.498,0.137-0.996,0.273-1.494,0.411c0.44-0.345,0.954-0.429,1.494-0.411
			c1.48-0.407,2.962-0.815,4.442-1.222c-6.009-2.134-12.198-1.428-18.295-0.848c-5.698,0.543-12.418-0.031-15.872,5.519
			c-3.352,5.387-8.38,6.006-13.482,7.032c-5.838,1.175-11.54,0.032-17.268-1.325c-8.892-2.109-17.547-2.717-23.552,6.326
			c-0.521,0.785-1.457,1.766-2.256,1.819c-6.937,0.461-13.887,0.731-21.93,1.108c3.598-3.214,6.778-5.278,5.813-9.785
			c-0.313-1.46,1.612-1.834,2.876-2.221c-0.01-0.351-0.02-0.702-0.031-1.054c0.239,0.228,0.323,0.459,0.253,0.696
			c-0.071,0.239-0.145,0.358-0.222,0.358c2.639-0.682,5.278-1.364,7.917-2.045c-0.331-0.28-0.662-0.56-0.992-0.84
			c-2.47,0.035-4.762,0.745-6.956,1.831v0c-0.957,0.068-1.987,0.382-2.719-0.545c-2.688-3.405-6.398-3.442-10.218-3.139
			c-1.702,0.611-3.404,1.221-5.347,1.919c0.285-2.487,1.619-3.409,3.415-3.893c-0.514,1.792,1.153,1.448,1.932,1.974
			c-0.644-0.658-1.288-1.316-1.931-1.974c2.725-1.83,6.216-1.201,9.777-2.825c-4.957-0.622-9.358-0.966-12.623,2.065
			c-5.127,4.759-11.757,4.3-18.539,7.107c2.044-3.558,4.553-4.623,6.57-6.27c8.187-6.686,18.848-7.477,28.017-11.886
			c9.702-4.666,19.891-8.315,29.815-12.531c1.417-0.602,3.363-0.658,4.221-2.567c-2.193-0.549-3.749,0.678-5.397,1.294
			c-9.955,3.719-20.054,6.973-30.341,9.641c-1.58,0.409-3.296,1.391-4.797,0.227c-3.434-2.662-7.15,1.075-7.863,1.877
			c-6.888,7.745-15.915,9.109-25.271,9.559c-1.726,0.084,0.252-1.197,0.333-1.878c-0.555-0.54-1.11-1.08-1.665-1.62
			c-0.131-0.07-0.24-0.162-0.306-0.298c0,0,0,0,0,0c0.102,0.1,0.204,0.199,0.307,0.298c0.711,0.379,2.139,0.022,1.664,1.62
			c2.036-0.934,3.32-2.529,4.275-4.464c-2.353,0.48-3.465,3.377-6.245,2.545c0.62-1.062,1.238-2.124,1.858-3.186
			c-2.492,0.3-3.215,3.157-5.736,3.913c0.312-1.68,0.594-3.199,0.875-4.718c-1.431,0.056-2.689,2.345-3.671,1.339
			c-1.233-1.262-1.518-3.254-0.88-5.398c1.152-3.869,1.761-7.899,2.597-11.861c-0.268-0.646-0.536-1.291-0.804-1.938
			c1.694,0.053,1.293,0.978,0.804,1.938c1.316-1.365,0.967-3.128,1.137-4.767c-0.321-0.406-0.642-0.813-0.962-1.22
			c0.964-0.101,1.405,0.211,0.962,1.22c1.168-1.177,0.735-2.77,1.08-4.161l-1.034-0.919c-0.337,1.286-0.673,2.573-1.009,3.86l0,0
			c-0.326,1.35-0.652,2.699-0.979,4.049l0,0c-1.023,2.98-0.856,6.375-3.11,8.925c0.154,1.215-0.492,2.091-1.239,2.924
			c1.128,1.892,0.497,3.826-0.245,5.53c-1.462,3.356-2.021,0.377-2.843-0.544c-0.339,0.435-0.679,0.87-1.018,1.305
			c-0.551-0.032-1.102-0.065-1.654-0.097c0.004-0.801,0.008-1.602,0.012-2.402v0c1.041-0.021,1.407-0.408,1.523-0.931
			c-0.089-0.087-0.177-0.176-0.26-0.263c-0.109-0.134-0.219-0.268-0.334-0.398c-0.226,0.576-0.455,1.15-0.93,1.591
			c-0.146-0.875-0.291-1.749-0.437-2.624c-2.616-0.026-0.464,3.599-2.907,3.793c-1.833-1.442-1.885-3.756-2.661-5.672
			c-0.29-0.716-0.575-3.053,1.393-1.909c2.55,1.482,1.702-0.567,1.504-1.269c-0.834-2.956-1.417-6.032-3.472-8.699
			c0.301,2.539,0.913,5.102-2.036,7.569c-2.845-11.03-3.02-21.719-3.718-32.354c-3.345,11.293,0.357,22.956-2.603,34.181
			c0.862,0.866,1.949,1.632,1.393,3.129c-0.738,2.598-2.01,3.922-4.663,1.956c1.001-0.578,2.351-0.672,2.849-1.943
			c-0.635,0.005-1.271,0.01-1.906,0.014h0c0.794-1.298,1.596-1.579,2.403-1.191c0.172-0.632,0.172-1.284-0.076-1.965
			c-2.76-0.411-3.397,0.744-2.327,3.157c-0.314,0.643-0.628,1.286-0.942,1.929c-2.199-0.928-1.098-5.087-3.737-4.791
			c-4.567,0.511-9.014,1.969-11,6.928c0.776,0.69,1.128,1.343-0.359,1.34c-1.525-0.002-2.401-0.95-2.845-2.345
			c-3.538-0.775-1.096-4.821-3.089-5.985c-2.473-1.445-3.708-4.249-7.546-4.566c-2.921-0.241-5.537-4.186-8.288-6.484h0
			c-0.878-0.985-1.756-1.971-2.915-3.269c-0.246,2.052,0.682,2.71,1.617,3.363c0.398-0.515,0.83-0.547,1.297-0.094
			c-0.433,0.032-0.864,0.063-1.297,0.094c1.612,4.617,6.074,6.796,8.901,10.381c1.457,1.849,0.841,6.481,5.52,4.34
			c0.27-0.124,1.251,0.54,1.223,0.635c-1.036,3.469,2.863,6.946,0.188,10.257c-1.719,2.128-1.738,4.019,0.26,6.228
			c-5.466,0.07-4.94-2.77-3.942-5.875l0,0c0.332-0.91,2.088-2.241,0.31-2.672c-2.642-0.64-2.415,1.762-2.477,3.51
			c0.722-0.28,1.085-1.488,2.166-0.838c-0.722,0.28-1.443,0.559-2.167,0.839c-5.604,3.103-1.248-3.697-3.904-3.737
			c-0.826,1.26-1.772,2.581-2.588,3.978c-1.267,2.172-2.315,4.764-5.204,1.57c-0.284-0.313-1.176-0.593-1.305-0.452
			c-3.007,3.313-5.952,0.196-8.903-0.045c-2.402-0.197-4.609-1.927-7.931-0.667c3.186,1.075,5.871,1.759,8.354,2.886
			c2.261,1.027,5.456,0.446,6.59,3.564c0.392,0.307,0.783,0.614,1.174,0.92c0.673,3.389,4.227,6.866-0.38,10.095
			c-0.844,0.591-0.387,1.379,0.04,2.176c1.912,3.567-0.335,4.067-3.045,3.748c-4.576-0.538-8.941,0.792-13.41,1.157
			c-1.711,0.14-1.321,0.757-1.002,1.835c0.353,1.192-0.523,2.163-1.505,2.092c-3.578-0.259-6.146,2.466-9.376,2.967
			c-5.746,0.891-11.537,1.484-17.309,2.202v0c-4.642,0.347-9.284,0.694-13.927,1.04v0c-4.672,0.309-9.345,0.618-14.017,0.927
			c0,0,0,0,0,0c-0.125,0-0.25,0.091-0.377,0.273c-0.008,0.012-0.008,0.024-0.014,0.036c0.136-0.081,0.268-0.177,0.391-0.309
			c-0.023,0.313-0.057,0.624-0.103,0.933c4.664-0.443,9.479,1.035,14.011-1.099c-0.33-0.22-0.424-0.406-0.282-0.559
			c0.125-0.135,0.255-0.203,0.391-0.203c0.031,0.264-0.006,0.518-0.109,0.762c5.112-0.058,10.259,0.583,15.324-0.41
			c-0.567,0.007-1.046-0.288-1.288-1.392c1.068,0.312,2.135,0.624,3.203,0.936c6.012,0.373,11.985-0.42,17.88-1.235
			c5.573-0.77,11.045,4.37,16.583,0.031c0.414-0.324,1.828,0.016,2.309,0.506c1.339,1.366,1.58,1.003,3.1-0.262
			c2.656-2.209,5.837-5.225,10.001-2.413c1.9,0.761,3.452-3.91,5.558-0.297c-0.89,2.078-3.764,0.627-4.729,2.58
			c1.087,0.875,2.814-0.727,4.083,0.968c-2.941,1.643-4.806,4.295-7.899,5.165c0,0,0,0-0.001,0
			c-3.739-0.511-6.953,1.019-10.153,2.604c-0.017,0.377-0.033,0.754-0.049,1.131c0.339,0.353,0.677,0.706,1.016,1.059
			c-3.006,1.549-0.105,5.564-3.48,7.447c-4.355,2.429-7.82,6.042-12.698,8.17c-2.615,1.142-5.644,3.879-8.694,5.611
			c0.338,0.297,0.677,0.595,1.015,0.892c6.509-2.445,13.041-4.831,19.519-7.357c3.665-1.429,5.62-0.863,6.577,3.481
			c1.959,8.894,4.457,17.671,6.798,26.478c1.401,5.27-1.915,9.574-7.959,10.186c-0.023,1.067-0.045,2.134-0.067,3.201
			c-0.696,2.9-2.882,1.77-4.667,1.727c-0.403,0.355-0.807,0.709-1.21,1.064c1.184,0.533,3.158,0.809,3.427,1.639
			c2.24,6.898,7.24,12.443,9.475,19.197c1.084,3.275,0.975,7.553-0.191,10.807c-1.327,3.703-6.299,1.754-9.226,3.602
			c-1.674,1.055-3.52,1.867-5.356,2.627c-1.358,0.561-2.804,0.961-4.248,1.244c-2.039,0.398-3.824-0.135-4.002-2.498
			c-0.205-2.717,1.149-6.803,2.821-6.693c5.875,0.383,8.628-3.74,12.282-6.699c-0.4-0.404-0.8-0.809-1.2-1.213
			c-1.271,0.342-2.539,0.682-3.809,1.023c-0.002-1.264-0.003-2.523-0.004-3.785c-0.749,0.574-0.936,1.32-0.672,2.182
			c0.011,0.313,0.027,0.645,0.048,0.961c0.139,0.273,0.347,0.492,0.628,0.643h0c-0.336,0.07-0.673,0.143-1.009,0.213
			c-0.026-0.408-0.051-0.818-0.077-1.227c-0.089,0-0.171,0.143-0.246,0.426c-0.073,0.277,0.034,0.545,0.323,0.801h0
			c-0.935,1.207-2.041,1.283-3.31,0.521c0.748-1.252,2.031-1.424,3.233-1.748c-0.487-0.762-1.501-1.662-1.346-2.256
			c0.289-1.111,1.533-0.602,2.428-0.516c1.612-0.352,2.816-1.199,3.419-2.057c-4.98-4.775-6.791,2.303-11.245,2.748
			c3.048-3.727,4.594-8.133,10.181-7.695c-2.973-0.854-5.64-3.457-8.68-1.305c-4.119,2.918-8.753,5.33-10.764,10.594
			c-0.994,2.602-3.308,5.885-6.111,4.643c-4.439-1.969-5.037,1.197-7.112,3.516c3.364-0.301,6.447-2.104,9.208,0.301
			c-0.641,2.262-2.779,2.064-3.913,3.211c0.406,0.367,0.813,0.736,1.219,1.105c1.259,0.264,2.266-1.436,4.66,0.135
			c-4.975,0.672-1.71,3.658-2.541,5.602c-1.38,3.23-4.03,5.563-6.368,8.096c0.397,0.383,0.795,0.768,1.192,1.152
			c1.971-0.141,3.847,0.277,5.037-2.402c0.761-1.711,3.244-2.639,5.552-2.518c-0.334,3.387,6.627,3.855,3.139,8.93
			c-2.162,3.146-4.765,6.047-7.222,9.967c4.637-1.701,6.88-5.178,9.86-7.604c2.942-2.396,2.707-0.578,2.985,1.395h0.001
			c0.407,0.01,0.814,0.021,1.221,0.031h0c-0.417,0.375-0.824,0.365-1.222-0.031c-0.544,0.605-1.088,1.209-1.632,1.814
			c0.29,0.184,0.397,0.383,0.321,0.594c-0.078,0.219-0.162,0.328-0.252,0.328c1.596-0.215,2.346-1.299,2.785-2.705
			c2.539,0.569,1.854-3.373,3.924-3.18c1.979,3.461,0.65,6.584-0.417,9.756c3.618-2.816,2.643-7.096,3.704-10.695
			c0.681-2.311,0.674-5.096,4.379-4.873c2.732,0.164,5.725-0.01,6.567,3.188c0.726,2.76,2.785,6.258-1.787,8.01
			c0.31,0.318,0.62,0.635,0.931,0.953c2.536,2.148-0.322,2.352-1.145,3.365c-0.365,0.447-2.656,0.414-0.75,1.686
			c2.341,1.564,0.226,2.455-0.424,3.447c-1.102,1.686-3.055,2.813-3.291,5.258c2.808-3.795,7.223-4.635,10.945-6.637
			c0.985,2.152,1.937,4.232,2.889,6.313c-4.434,2.023-5.442,2.957-5.141,5.068c0.497,3.479,3.378,3.066,5.769,3.426
			c1.316-1.025,2.593-2.803,4.095-0.211l0,0c-0.788,0.869-1.656,1.527-2.575,2.051c-0.395-0.703-0.872-1.34-1.52-1.84
			c-2.907,2.566-7.136,1.602-10.177,3.809c0.83-0.467,1.318-0.02,1.727,0.645c-0.005,0.055-0.004,0.1-0.008,0.152
			c-0.164,0.041-0.329,0.08-0.492,0.125c5.434,2.941,10.209,1.131,13.044-4.94c-0.152,4.669,2.677,6.31,7.247,6.556
			c-6.044,4.018-12.294,5.012-18.912,4.363c-0.465-0.045-0.906-0.371-1.349-0.588c-1.554-0.76-4.448,2.805-4.805-1.146
			c-0.257-2.836,2.792-3.229,4.774-4.242c-0.409-0.309-0.818-0.615-1.227-0.924c-2.984,0.639-5.583,2.039-5.499,5.377
			c0.041,1.646,0.938,3.656-0.772,4.344c-2.314,0.928-1.347-2.615-3.249-3.07c-0.814,3.645,1.293,5.594,4.25,5.746
			c2.148,0.111,3.555,1.465,5.275,1.742c4.523,0.729,8.729,2.475,13.803,1.275c6.739-1.592,10.142-7.734,16.55-9.762
			c-1.627,4.902,0.642,9.639,0.832,14.564c0.23,5.982,0.048,12.729,2.739,17.68c3.389,6.236,4.395,12.775,6.271,19.238
			c0.308-0.01,0.616-0.012,0.924-0.004c0.603-0.979,1.399-1.932,1.018-3.184c-1.224-4.023-0.678-7.111,2.984-10.055
			c1.631-1.313,2.18-5.008,1.846-7.434c-0.331-2.404-0.099-4.143,1.561-5.582c0.756-0.654,2.318-1.885,2.995-0.848
			c0.976,1.498,1.95,3.793,1.479,5.295c-1.715,5.473-0.828,10.264,2.42,14.797c1.413,1.295,1.592,0.166,1.797-0.914
			c-1.186-2.416,0.158-4.561,0.428-7.475c2.332,1.74,4.163,3.254,4.083,5.584c-0.053,1.557-1.361,3.018-3.473,2.699
			c-0.291,1.729-0.582,3.457-0.873,5.184c0.013,0.01,0.025,0.02,0.038,0.029c-0.014,0-0.028-0.002-0.041-0.002
			c0.001,0,0.002,0,0.003,0.002c0.01,0.006,0.019,0.012,0.029,0.018c0.006-0.006,0.013-0.012,0.015-0.014l0.002-0.002
			c0.001,0,0.001,0,0.001-0.002c0,0-0.002,0.003-0.004,0.004c-0.002-0.002-0.003-0.002-0.004-0.004c0.003,0,0.006,0,0.008,0h0.001
			l-0.002,0.002c0,0.002-0.001,0.002-0.001,0.004c0.006,0.004,0.011,0.008,0.016,0.012c1.658-0.633,1.745-3.131,3.977-3.342
			c1.812,3.742,0.08,6.938-1.393,10.164c-0.57-0.309-1.14-0.617-1.711-0.926l0,0c-2.084-1.693-2.098-3.697-0.903-5.881
			c-0.015,0.005-0.025,0.015-0.039,0.02c0.005-0.006,0.021-0.021,0.038-0.035c0.002,0,0.005,0.002,0.007,0.004
			c0.003-0.006,0.005-0.012,0.008-0.016c0,0,0-0.002-0.001-0.002c-0.001,0.002-0.008,0.008-0.014,0.014h0
			c-0.017,0.015-0.036,0.031-0.04,0.036c-0.001,0-0.001,0.001-0.002,0.001l-0.001,0.002c0.003-0.02,0.007-0.041,0.01-0.059
			c-0.381-0.027-0.763-0.053-1.144-0.078c-4.165,3.746-5.705,7.484-0.585,11.848c1.264,1.076,1.719,3.17,2.38,4.863
			c0.439,1.125,0.999,1.666,2.209,1.281c5.865-3.311,5.797-9.037,5.898-14.645c0.101-5.584-0.859-11.463,2.152-16.43
			c1.38-2.275,2.619-4.24,3.246-6.93c1.095-4.699,3.874-9.039,2.476-14.191c-0.109-0.402,0.454-0.842,0.9-1.127
			c0.322-0.092,0.643-0.113,0.963-0.096c-0.388-1.02-0.582-2.217-0.577-3.6c0.582-0.35,1.163-0.697,1.745-1.049
			c0.408,0.33,0.769,0.711,1.136,1.086c0.329,0.133,0.565,0.362,0.723,0.677c-0.251-0.214-0.492-0.441-0.723-0.677
			c-0.295-0.117-0.66-0.16-1.136-0.084c-0.03,1.477-0.625,3.561,2.165,2.02c-0.042-0.482-0.132-0.911-0.302-1.255
			c0.101,0.086,0.196,0.177,0.302,0.255c0.752,1.277,1.508,2.551,3.037,3.059c-0.838,0.928-0.281,1.797,0.033,2.68
			c-0.174-0.047-0.344-0.1-0.519-0.145c-1.62-0.068-2.771-1.049-3.929-2.006c-0.42-0.326-0.844-0.664-1.338-0.879
			c-0.206-0.045-0.411-0.07-0.616-0.082c0.953,2.504,3.103,3.912,6.564,4.141c0.045-0.348-0.041-0.689-0.162-1.029
			c5.3,1.408,10.147,3.775,14.491,7.139c2.228,1.725,4.383,3.551,6.72,5.125c2.11,1.422,4.318,2.094,7.017,1.443
			c3.879-0.932,7.582-1.127,10.956-0.086l7.537,5.326c0,0,0,0,0,0c1.323,1.627,2.766,3.291,4.511,4.385
			c3.538,2.22,6.425,5.896,10.036,7.992l0.002,0.002c2.597,1.504,5.564,2.193,9.42,0.928c0.007-0.004,0.012-0.004,0.018-0.008
			c2.019-0.988,3.662,0.074,5.337,0.957c0.036,0.002,0.068,0,0.104,0c3.732,0.061,6.283-1.41,6.328-5.49
			c0.023-2.154,1.646-3.482,2.099-5.361c0.002-0.004,0.004-0.01,0.005-0.016l0.521-1.41l4.543-6.34
			c2.017-2.031,4.181-3.941,5.693-6.387c0.421-0.746,0.521-1.621,0.955-2.363c0.436-0.689,0.92-1.33,1.775-1.523
			c5.073,0.861,10.106,0.588,15.077-0.752c1.481-0.398,3.092-0.791,4.398-0.084c6.643,3.598,12.784,1.41,19.076-1.127
			c4.969-2.004,9.974-1.639,13.874,2.371c2.934,3.016,6.658,4.906,9.742,7.652l0.002,0.007v-0.007c0.131,0.117,0.27,0.227,0.4,0.35
			c1.047,0.977,2.26,1.545,3.584,0.643c1.186-0.807,1.525-1.943,1.355-3.236l0,0v-0.002c-0.031-0.24-0.076-0.486-0.143-0.738
			c-0.611-2.328-2.586-3.832-3.58-5.998c-0.053-0.043,0.162-0.227,0.09-0.279c0.357-0.139,0.785-0.225,1.197-0.43
			c0.17-0.145,0.338-0.232,0.506-0.297c-0.268-0.057-0.549-0.166-0.85-0.361c0.234-2.133-2.623-3.377-1.604-5.914
			c2.668,0.762,1.881,4.705,4.729,5.148c-0.402,0.49-0.83,0.869-1.309,1.053c0.564,0.096,1.125,0.35,1.689,0.367
			c1.141,0.078,2.514-0.656,3.398,0.117c4.564,3.994,10.133,3.172,15.502,3.57c5.406,0.402,9.965-1.424,14.145-4.516
			c-0.141-0.166-0.285-0.332-0.414-0.521c-0.057-0.275-0.072-0.553-0.045-0.834c0.314,0.156,0.654,0.281,1,0.395
			c0.033-0.248,0.041-0.5,0.016-0.754c-2.416-4.291-6.389-5.236-10.225-5.818c0.098-0.027,0.197-0.051,0.291-0.088
			c4.066-1.65,8.133-0.801,12.254-0.664c4.262,0.141,8.475,0.217,11.98-3.428c1.826-1.898,4.426-1.803,6.742-0.438
			c0.355,0.209,0.703,0.447,1.041,0.713c0.287,0.227,0.563,0.469,0.828,0.717c0.707,0.656,1.354,1.375,2.01,2.088
			c1.574,1.711,3.453,2.133,5.326,0.709c1.877-1.426,1.91-3.355,0.766-5.348c-0.178-0.309-0.35-0.619-0.521-0.934
			c-1.027-1.875-2.004-3.779-3.592-5.287c-1.936-1.838-3.869-3.67-5.857-5.438c-0.225-0.199-0.449-0.395-0.676-0.592
			c-2.756-2.41-5.633-4.684-8.803-6.633c-0.826-0.508-1.613-1.068-2.379-1.668c-0.08-0.063-0.164-0.123-0.244-0.188
			c-2.469-1.98-4.674-4.441-6.902-7.354c2.865-0.287,5.031-2.115,6.902-3.254c0.881-0.537,1.697-0.922,2.488-0.922
			c6.539,0.004,9.34-3.617,13.277-7.842c2.719-2.912,7.475-5.355,11.91-6.67c3.404-1.01,5.119-2.814,5.057-6.324
			c-0.047-0.258-0.115-0.51-0.188-0.76c-0.523,0.209-1.039,0.381-1.373,0.758c-1.273-1.205-3.74-1.504-3.143-4.131
			c1.133,1.867,2.492,2.705,4.121,2.078c-0.154-0.559-0.264-1.123-0.203-1.725c1.008-2.047,3.066-2.549,4.951-2.721
			c4.355-0.398,6.59-3.053,8.467-6.613c2.334-4.43,2.328-9.398,3.717-14.033v-6c-1.336-1.348-1.809-3.082-1.82-4.869
			C420.627,169.853,420.512,166.134,419.254,162.547z M330.795,122.858c0.387-0.903,1.703-0.241,2.607-0.018
			c0.018-0.405,0.035-0.81,0.053-1.215c0.242,0.202,0.354,0.429,0.332,0.68c-0.021,0.264-0.066,0.396-0.129,0.396
			c-0.555,0.433-1.725,0.47-1.084,1.679l-0.002,0C331.527,124.356,330.379,123.829,330.795,122.858z M77.463,106.425L77.463,106.425
			c2.155-3.334,5.742-3.925,9.185-4.793C83.586,103.23,80.524,104.828,77.463,106.425z M91.651,193.329v0.084
			c-0.031,0.037-0.057,0.074-0.087,0.109c-0.255,1.623,0.377,3.508-1.66,5.381c-0.02-2.443,0.505-4.012,1.66-5.381
			c0.009-0.057,0.016-0.113,0.027-0.17h0.001C91.613,193.345,91.63,193.337,91.651,193.329v-4.451
			C93.515,191.194,94.365,192.353,91.651,193.329z M140.543,319.241c-2.168-1.686-0.378-3.234,0.04-4.786
			c0.35,0.716,0.721,1.394,1.711,0.925C141.512,316.53,142.115,318.323,140.543,319.241z M142.639,54.67
			c0.529,0.413,1.078,0.492,1.654,0.097c0,0,0,0,0,0c0.075,0.764,0.427,2.018-0.383,2.085
			C142.698,56.954,142.752,55.607,142.639,54.67L142.639,54.67z M151.305,76.003c-11.441-3.826-14.137-1.951-15.546,5.332
			c-1.889,0.099-3.293-3.423-5.526-0.763c0.397,1.12-0.418,1.958-0.68,2.924c-1.509,2.172-4.354,2.897-5.498,5.607
			c-6.598-11.956-2.393-23.974,9.318-26.93c6.654-1.68,12.295,0.649,17.319,5.183C153.919,70.271,151.46,73.072,151.305,76.003z
			 M166.641,273.599c-0.583-0.027-1.579-0.344-1.64-0.674c-0.18-0.973,0.559-1.42,1.51-1.395c0.715,0.02,1.244,0.342,1.451,1.201
			C168,273.583,167.182,273.624,166.641,273.599z M272.271,147.804c10.783-4.7,18.812-2.444,27.31,7.474
			c-17.345,1.85-33.923,4.979-50.914,4.256C256.522,155.596,264.228,151.312,272.271,147.804z M282.106,176.929
			c-12.122-0.85-24.243-1.68-35.94-5.361c-0.759-0.238-1.675-0.162-2.184-1.82c17.717-0.674,35.128-1.607,52.543-3.113
			C294.82,172.278,287.641,177.317,282.106,176.929z M322.752,276.47c0.195-1-1.902-2.115-0.131-2.865
			c1.002-0.426,1.432,0.998,1.801,1.885C323.865,275.815,323.309,276.144,322.752,276.47z M344.973,196.817
			c-4.393-0.738-8.596-3.713-11.846-6.316c-6.615-5.301-14.104-7.182-21.852-8.551c-4.242-0.75-7.725-2.637-11.857-4.508
			c1.606-2.352,3.561-4.098,4.09-6.199c1.357-5.41,4.955-5.867,9.627-5.899c13.791-0.096,27.584-0.497,41.063,3.167
			c4.832,1.314,9.449,3.115,13.033,6.889c2.207,2.322,2.66,4.658,1.211,7.654C365.15,189.847,352.219,198.036,344.973,196.817z"/>
		<path d="M37.849,97.043c0.375-0.005,0.788-0.141,1.199-0.269C38.649,96.875,38.249,96.965,37.849,97.043z"/>
		<path d="M127.293,48.425c0.604-0.005,1.209-0.009,1.813-0.014c-0.44-0.556-0.879-0.954-1.317-1.164
			c-0.093,0.341-0.222,0.678-0.423,1.007C127.348,48.318,127.316,48.366,127.293,48.425z"/>
		<path d="M195.182,130.529c-0.249-0.422-0.497-0.845-0.745-1.267c-0.158,0.403-0.181,0.726-0.122,1.002
			c0.073,0.044,0.148,0.077,0.22,0.131C194.756,130.426,194.971,130.473,195.182,130.529z"/>
		<path d="M190.278,129.753c-0.039,0.102,0.007,0.181,0.122,0.243c0.085,0.003,0.17,0.005,0.256-0.001
			c-0.032-0.177-0.071-0.353-0.134-0.523C190.431,129.472,190.35,129.566,190.278,129.753z"/>
		<path d="M407.801,207.911c-0.807,0.848-1.557,1.385-2.26,1.654c0.121,0.434,0.266,0.861,0.393,1.293
			C406.873,210.481,407.834,209.978,407.801,207.911z"/>
		<path d="M363.895,277.995c1.381,1.611,3.35,2.207,5.318,2.803c-0.381-2.916-2.752-3.105-4.779-3.764
			c-0.029,0.232-0.084,0.463-0.162,0.691C364.148,277.819,364.02,277.901,363.895,277.995z"/>
		<path d="M91.591,193.353l0.06,0.061C91.651,193.413,91.592,193.353,91.591,193.353z"/>
		<path d="M369.314,280.829c1.686,0.709,3.367,1.426,5.049,2.143C373.143,280.786,371.561,279.724,369.314,280.829z"/>
		<path d="M369.225,280.864L369.225,280.864L369.225,280.864L369.225,280.864c0.031-0.016,0.059-0.02,0.09-0.035
			c-0.021-0.01-0.043-0.018-0.064-0.027c-0.002,0.003-0.006,0.016-0.012,0.028l0.008-0.022c-0.012-0.002-0.021-0.006-0.033-0.01
			c0.002,0.022,0.008,0.042,0.012,0.064V280.864z"/>
		<path d="M146.057,48.583c0.028,0.025,0.063,0.036,0.093,0.059c0.064-0.054,0.127-0.131,0.186-0.232
			c-0.125,0.021-0.253,0.025-0.379,0.039C145.989,48.494,146.018,48.539,146.057,48.583z"/>
		<path d="M145.97,48.728L145.97,48.728c0.302,0.391,0.539,0.791,0.693,1.204c0.079-0.263,0.184-0.516,0.327-0.757
			c0.006-0.045,0.012-0.09,0.018-0.135c-0.313-0.07-0.603-0.196-0.859-0.398C146.092,48.691,146.032,48.718,145.97,48.728
			c-0.037-0.047-0.068-0.096-0.105-0.143c-0.055-0.048-0.111-0.074-0.167-0.11c-0.056,0.003-0.111,0.015-0.167,0.017
			C145.688,48.674,145.833,48.749,145.97,48.728z"/>
		<path d="M147.534,48.497c0.007,0.184,0.008,0.365,0.007,0.547c0.336-0.098,0.622-0.288,0.858-0.568
			C148.11,48.486,147.822,48.493,147.534,48.497c-0.147-0.012-0.295-0.021-0.442-0.033c-0.031,0.191-0.058,0.383-0.083,0.576
			c0.015,0.004,0.03,0.009,0.046,0.012C147.185,48.856,147.339,48.669,147.534,48.497z"/>
		<path d="M146.446,50.918c-0.167,0.249-0.378,0.482-0.68,0.682c-0.018,0.007-0.036,0.008-0.053,0.014
			c0.031,0.534,0.062,1.068,0.093,1.602c0.053-0.032,0.114-0.051,0.164-0.087C146.264,52.438,146.334,51.671,146.446,50.918z"/>
		<path d="M147.054,49.052c-0.026,0.039-0.041,0.083-0.064,0.123c-0.05,0.372-0.113,0.738-0.227,1.087
			c-0.03-0.111-0.06-0.222-0.101-0.331c-0.097,0.32-0.168,0.65-0.218,0.986c0.138-0.206,0.243-0.424,0.318-0.654
			c0.197,0.748,0.135,1.536-0.282,2.379c-0.15,0.191-0.322,0.352-0.512,0.487c-0.048,0.112-0.087,0.228-0.148,0.336
			c-0.005-0.083-0.01-0.167-0.015-0.25c-0.157,0.094-0.314,0.187-0.495,0.246c0.17,0.012,0.34,0.014,0.51,0.004v0l0,0l0,0l0,0
			c1.349-1.207,1.713-2.752,1.72-4.422c-0.09,0.026-0.181,0.049-0.279,0.062C147.188,49.097,147.125,49.066,147.054,49.052z"/>
	</g>
</svg>
